<svg xmlns="http://www.w3.org/2000/svg" xmlns:xlink="http://www.w3.org/1999/xlink" width="1000" zoomAndPan="magnify" viewBox="0 0 750 749.999995" height="1000" preserveAspectRatio="xMidYMid meet" version="1.0"><defs><g/><clipPath id="e00cda5cbb"><path d="M 47.625 47.625 L 702.375 47.625 L 702.375 702.375 L 47.625 702.375 Z M 47.625 47.625 " clip-rule="nonzero"/></clipPath><clipPath id="a7f4890cff"><path d="M 375 47.625 C 194.195312 47.625 47.625 194.195312 47.625 375 C 47.625 555.804688 194.195312 702.375 375 702.375 C 555.804688 702.375 702.375 555.804688 702.375 375 C 702.375 194.195312 555.804688 47.625 375 47.625 Z M 375 47.625 " clip-rule="nonzero"/></clipPath><clipPath id="bd118338cc"><path d="M 0.625 0.625 L 655.375 0.625 L 655.375 655.375 L 0.625 655.375 Z M 0.625 0.625 " clip-rule="nonzero"/></clipPath><clipPath id="6e6fe03442"><path d="M 328 0.625 C 147.195312 0.625 0.625 147.195312 0.625 328 C 0.625 508.804688 147.195312 655.375 328 655.375 C 508.804688 655.375 655.375 508.804688 655.375 328 C 655.375 147.195312 508.804688 0.625 328 0.625 Z M 328 0.625 " clip-rule="nonzero"/></clipPath><clipPath id="3fc3caf169"><rect x="0" width="656" y="0" height="656"/></clipPath><clipPath id="fd843f2bba"><path d="M 65.253906 65.253906 L 684.746094 65.253906 L 684.746094 684.746094 L 65.253906 684.746094 Z M 65.253906 65.253906 " clip-rule="nonzero"/></clipPath><clipPath id="76fb06b9f4"><path d="M 375 65.253906 C 203.929688 65.253906 65.253906 203.929688 65.253906 375 C 65.253906 546.070312 203.929688 684.746094 375 684.746094 C 546.070312 684.746094 684.746094 546.070312 684.746094 375 C 684.746094 203.929688 546.070312 65.253906 375 65.253906 Z M 375 65.253906 " clip-rule="nonzero"/></clipPath><clipPath id="6d4ec7c787"><path d="M 0.253906 0.253906 L 619.746094 0.253906 L 619.746094 619.746094 L 0.253906 619.746094 Z M 0.253906 0.253906 " clip-rule="nonzero"/></clipPath><clipPath id="8aea1d4d7f"><path d="M 310 0.253906 C 138.929688 0.253906 0.253906 138.929688 0.253906 310 C 0.253906 481.070312 138.929688 619.746094 310 619.746094 C 481.070312 619.746094 619.746094 481.070312 619.746094 310 C 619.746094 138.929688 481.070312 0.253906 310 0.253906 Z M 310 0.253906 " clip-rule="nonzero"/></clipPath><clipPath id="000fe1a02b"><rect x="0" width="620" y="0" height="620"/></clipPath><clipPath id="edeb0074fb"><path d="M 76.046875 75 L 675 75 L 675 673.953125 L 76.046875 673.953125 Z M 76.046875 75 " clip-rule="nonzero"/></clipPath><clipPath id="c9d02af569"><path d="M 375.523438 75 C 210.128906 75 76.046875 209.082031 76.046875 374.476562 C 76.046875 539.871094 210.128906 673.953125 375.523438 673.953125 C 540.917969 673.953125 675 539.871094 675 374.476562 C 675 209.082031 540.917969 75 375.523438 75 Z M 375.523438 75 " clip-rule="nonzero"/></clipPath><clipPath id="e63a2ad295"><path d="M 0.046875 0 L 599 0 L 599 598.953125 L 0.046875 598.953125 Z M 0.046875 0 " clip-rule="nonzero"/></clipPath><clipPath id="c4732e6f31"><path d="M 299.523438 0 C 134.128906 0 0.046875 134.082031 0.046875 299.476562 C 0.046875 464.871094 134.128906 598.953125 299.523438 598.953125 C 464.917969 598.953125 599 464.871094 599 299.476562 C 599 134.082031 464.917969 0 299.523438 0 Z M 299.523438 0 " clip-rule="nonzero"/></clipPath><clipPath id="285262d02a"><rect x="0" width="599" y="0" height="599"/></clipPath><clipPath id="0946bbd970"><path d="M 88.554688 88.554688 L 661.445312 88.554688 L 661.445312 661.445312 L 88.554688 661.445312 Z M 88.554688 88.554688 " clip-rule="nonzero"/></clipPath><clipPath id="4320848b47"><path d="M 375 88.554688 C 216.800781 88.554688 88.554688 216.800781 88.554688 375 C 88.554688 533.199219 216.800781 661.445312 375 661.445312 C 533.199219 661.445312 661.445312 533.199219 661.445312 375 C 661.445312 216.800781 533.199219 88.554688 375 88.554688 Z M 375 88.554688 " clip-rule="nonzero"/></clipPath><clipPath id="994c5fa5bb"><path d="M 0.554688 0.554688 L 573.445312 0.554688 L 573.445312 573.445312 L 0.554688 573.445312 Z M 0.554688 0.554688 " clip-rule="nonzero"/></clipPath><clipPath id="8dfd18c148"><path d="M 287 0.554688 C 128.800781 0.554688 0.554688 128.800781 0.554688 287 C 0.554688 445.199219 128.800781 573.445312 287 573.445312 C 445.199219 573.445312 573.445312 445.199219 573.445312 287 C 573.445312 128.800781 445.199219 0.554688 287 0.554688 Z M 287 0.554688 " clip-rule="nonzero"/></clipPath><clipPath id="c734e4cdc5"><rect x="0" width="574" y="0" height="574"/></clipPath><clipPath id="44e1d049fa"><path d="M 88.554688 88.554688 L 661.4375 88.554688 L 661.4375 661.4375 L 88.554688 661.4375 Z M 88.554688 88.554688 " clip-rule="nonzero"/></clipPath><clipPath id="12cc1741a7"><path d="M 374.996094 88.554688 C 216.800781 88.554688 88.554688 216.800781 88.554688 374.996094 C 88.554688 533.195312 216.800781 661.4375 374.996094 661.4375 C 533.195312 661.4375 661.4375 533.195312 661.4375 374.996094 C 661.4375 216.800781 533.195312 88.554688 374.996094 88.554688 Z M 374.996094 88.554688 " clip-rule="nonzero"/></clipPath><clipPath id="c2c38a4b5b"><path d="M 186.125 185.230469 L 565.667969 185.230469 L 565.667969 564.769531 L 186.125 564.769531 Z M 186.125 185.230469 " clip-rule="nonzero"/></clipPath><clipPath id="0ecf3f770c"><path d="M 375.894531 185.230469 C 271.089844 185.230469 186.125 270.191406 186.125 375 C 186.125 479.808594 271.089844 564.769531 375.894531 564.769531 C 480.703125 564.769531 565.667969 479.808594 565.667969 375 C 565.667969 270.191406 480.703125 185.230469 375.894531 185.230469 Z M 375.894531 185.230469 " clip-rule="nonzero"/></clipPath><clipPath id="cf697af928"><path d="M 0.125 0.230469 L 379.667969 0.230469 L 379.667969 379.769531 L 0.125 379.769531 Z M 0.125 0.230469 " clip-rule="nonzero"/></clipPath><clipPath id="b982e12c20"><path d="M 189.894531 0.230469 C 85.089844 0.230469 0.125 85.191406 0.125 190 C 0.125 294.808594 85.089844 379.769531 189.894531 379.769531 C 294.703125 379.769531 379.667969 294.808594 379.667969 190 C 379.667969 85.191406 294.703125 0.230469 189.894531 0.230469 Z M 189.894531 0.230469 " clip-rule="nonzero"/></clipPath><clipPath id="4165a008b8"><rect x="0" width="380" y="0" height="380"/></clipPath><clipPath id="77510c4c8a"><path d="M 200.292969 200.292969 L 552.929688 200.292969 L 552.929688 552.929688 L 200.292969 552.929688 Z M 200.292969 200.292969 " clip-rule="nonzero"/></clipPath><clipPath id="ee1a4ea305"><path d="M 376.609375 200.292969 C 279.230469 200.292969 200.292969 279.230469 200.292969 376.609375 C 200.292969 473.988281 279.230469 552.929688 376.609375 552.929688 C 473.988281 552.929688 552.929688 473.988281 552.929688 376.609375 C 552.929688 279.230469 473.988281 200.292969 376.609375 200.292969 Z M 376.609375 200.292969 " clip-rule="nonzero"/></clipPath><clipPath id="97a07e6c8a"><path d="M 0.292969 0.292969 L 352.929688 0.292969 L 352.929688 352.929688 L 0.292969 352.929688 Z M 0.292969 0.292969 " clip-rule="nonzero"/></clipPath><clipPath id="7fd7a4e07f"><path d="M 176.609375 0.292969 C 79.230469 0.292969 0.292969 79.230469 0.292969 176.609375 C 0.292969 273.988281 79.230469 352.929688 176.609375 352.929688 C 273.988281 352.929688 352.929688 273.988281 352.929688 176.609375 C 352.929688 79.230469 273.988281 0.292969 176.609375 0.292969 Z M 176.609375 0.292969 " clip-rule="nonzero"/></clipPath><clipPath id="5b7092597b"><rect x="0" width="353" y="0" height="353"/></clipPath><clipPath id="c393d5981f"><path d="M 209.070312 209.070312 L 540.929688 209.070312 L 540.929688 540.929688 L 209.070312 540.929688 Z M 209.070312 209.070312 " clip-rule="nonzero"/></clipPath><clipPath id="7176d28982"><path d="M 375 209.070312 C 283.359375 209.070312 209.070312 283.359375 209.070312 375 C 209.070312 466.640625 283.359375 540.929688 375 540.929688 C 466.640625 540.929688 540.929688 466.640625 540.929688 375 C 540.929688 283.359375 466.640625 209.070312 375 209.070312 Z M 375 209.070312 " clip-rule="nonzero"/></clipPath><clipPath id="22efd35f1f"><path d="M 0.0703125 0.0703125 L 331.929688 0.0703125 L 331.929688 331.929688 L 0.0703125 331.929688 Z M 0.0703125 0.0703125 " clip-rule="nonzero"/></clipPath><clipPath id="37c39fd060"><path d="M 166 0.0703125 C 74.359375 0.0703125 0.0703125 74.359375 0.0703125 166 C 0.0703125 257.640625 74.359375 331.929688 166 331.929688 C 257.640625 331.929688 331.929688 257.640625 331.929688 166 C 331.929688 74.359375 257.640625 0.0703125 166 0.0703125 Z M 166 0.0703125 " clip-rule="nonzero"/></clipPath><clipPath id="c29a9673a8"><rect x="0" width="332" y="0" height="332"/></clipPath><clipPath id="c196cbe697"><path d="M 365 358 L 497 358 L 497 553 L 365 553 Z M 365 358 " clip-rule="nonzero"/></clipPath><clipPath id="20f96825c6"><path d="M 365.457031 536.558594 L 467.910156 358.609375 L 496.335938 374.976562 L 393.882812 552.921875 Z M 365.457031 536.558594 " clip-rule="nonzero"/></clipPath><clipPath id="a34483e698"><path d="M 0.28125 0.558594 L 131.558594 0.558594 L 131.558594 194.960938 L 0.28125 194.960938 Z M 0.28125 0.558594 " clip-rule="nonzero"/></clipPath><clipPath id="e3f01f3bcf"><path d="M 0.457031 178.558594 L 102.910156 0.609375 L 131.335938 16.976562 L 28.882812 194.921875 Z M 0.457031 178.558594 " clip-rule="nonzero"/></clipPath><clipPath id="e61a1c27ef"><rect x="0" width="132" y="0" height="195"/></clipPath><clipPath id="a0f59a137c"><path d="M 300 388 L 398 388 L 398 524 L 300 524 Z M 300 388 " clip-rule="nonzero"/></clipPath><clipPath id="eaa092b522"><path d="M 300.496094 506.949219 L 368.734375 388.242188 L 397.167969 404.589844 L 328.933594 523.296875 Z M 300.496094 506.949219 " clip-rule="nonzero"/></clipPath><clipPath id="20c5a37589"><path d="M 0.480469 0.078125 L 97.199219 0.078125 L 97.199219 135.441406 L 0.480469 135.441406 Z M 0.480469 0.078125 " clip-rule="nonzero"/></clipPath><clipPath id="621fa121c8"><path d="M 0.496094 118.949219 L 68.734375 0.242188 L 97.167969 16.589844 L 28.933594 135.296875 Z M 0.496094 118.949219 " clip-rule="nonzero"/></clipPath><clipPath id="dd8d758c6a"><rect x="0" width="98" y="0" height="136"/></clipPath><clipPath id="e48fc287fb"><path d="M 249 338 L 347 338 L 347 474 L 249 474 Z M 249 338 " clip-rule="nonzero"/></clipPath><clipPath id="e5ef36895a"><path d="M 249.835938 457.089844 L 318.15625 338.429688 L 346.582031 354.796875 L 278.261719 473.457031 Z M 249.835938 457.089844 " clip-rule="nonzero"/></clipPath><clipPath id="4a4a375f42"><path d="M 0.601562 0.398438 L 97.800781 0.398438 L 97.800781 135.519531 L 0.601562 135.519531 Z M 0.601562 0.398438 " clip-rule="nonzero"/></clipPath><clipPath id="370988a319"><path d="M 0.835938 119.089844 L 69.15625 0.429688 L 97.582031 16.796875 L 29.261719 135.457031 Z M 0.835938 119.089844 " clip-rule="nonzero"/></clipPath><clipPath id="d3ddfc97bc"><rect x="0" width="98" y="0" height="136"/></clipPath><clipPath id="dab9539938"><path d="M 249.832031 262.5 L 498.097656 262.5 L 498.097656 375 L 249.832031 375 Z M 249.832031 262.5 " clip-rule="nonzero"/></clipPath><clipPath id="67aee960fa"><path d="M 0.832031 0.5 L 249.097656 0.5 L 249.097656 113 L 0.832031 113 Z M 0.832031 0.5 " clip-rule="nonzero"/></clipPath><clipPath id="67ee348b9c"><rect x="0" width="250" y="0" height="113"/></clipPath><clipPath id="945475aa0b"><path d="M 250.722656 355.5625 L 498.097656 355.5625 L 498.097656 375 L 250.722656 375 Z M 250.722656 355.5625 " clip-rule="nonzero"/></clipPath><clipPath id="bc06bdab4a"><path d="M 0.722656 0.5625 L 248.097656 0.5625 L 248.097656 20 L 0.722656 20 Z M 0.722656 0.5625 " clip-rule="nonzero"/></clipPath><clipPath id="c78f015ae7"><rect x="0" width="249" y="0" height="20"/></clipPath><clipPath id="2613a2f30d"><path d="M 5.359375 6.351562 L 281.628906 6.351562 L 281.628906 322.421875 L 5.359375 322.421875 Z M 5.359375 6.351562 " clip-rule="nonzero"/></clipPath><clipPath id="7e8bf7b0b6"><path d="M 10.441406 12.164062 L 276.761719 12.164062 L 276.761719 316.527344 L 10.441406 316.527344 Z M 10.441406 12.164062 " clip-rule="nonzero"/></clipPath><clipPath id="14f47e7511"><path d="M 16.09375 18.621094 L 271.292969 18.621094 L 271.292969 310.109375 L 16.09375 310.109375 Z M 16.09375 18.621094 " clip-rule="nonzero"/></clipPath><clipPath id="609d013fd3"><path d="M 0.675781 1 L 286.308594 1 L 286.308594 327.605469 L 0.675781 327.605469 Z M 0.675781 1 " clip-rule="nonzero"/></clipPath><clipPath id="9b5adde45f"><rect x="0" width="287" y="0" height="328"/></clipPath><clipPath id="bc1f6e1530"><path d="M 283.207031 282.3125 L 468.585938 282.3125 L 468.585938 467.6875 L 283.207031 467.6875 Z M 283.207031 282.3125 " clip-rule="nonzero"/></clipPath><clipPath id="83219281fa"><path d="M 375.894531 282.3125 C 324.707031 282.3125 283.207031 323.808594 283.207031 375 C 283.207031 426.191406 324.707031 467.6875 375.894531 467.6875 C 427.085938 467.6875 468.585938 426.191406 468.585938 375 C 468.585938 323.808594 427.085938 282.3125 375.894531 282.3125 Z M 375.894531 282.3125 " clip-rule="nonzero"/></clipPath><clipPath id="29b9164da2"><path d="M 0.207031 0.3125 L 185.585938 0.3125 L 185.585938 185.6875 L 0.207031 185.6875 Z M 0.207031 0.3125 " clip-rule="nonzero"/></clipPath><clipPath id="c8f09572c7"><path d="M 92.894531 0.3125 C 41.707031 0.3125 0.207031 41.808594 0.207031 93 C 0.207031 144.191406 41.707031 185.6875 92.894531 185.6875 C 144.085938 185.6875 185.585938 144.191406 185.585938 93 C 185.585938 41.808594 144.085938 0.3125 92.894531 0.3125 Z M 92.894531 0.3125 " clip-rule="nonzero"/></clipPath><clipPath id="cbfa4e7f09"><rect x="0" width="186" y="0" height="186"/></clipPath><clipPath id="c88c2c3d7f"><rect x="0" width="178" y="0" height="102"/></clipPath></defs><g clip-path="url(#e00cda5cbb)"><g clip-path="url(#a7f4890cff)"><g transform="matrix(1, 0, 0, 1, 47, 47)"><g clip-path="url(#3fc3caf169)"><g clip-path="url(#bd118338cc)"><g clip-path="url(#6e6fe03442)"><path fill="#1c2c5b" d="M 0.625 0.625 L 655.375 0.625 L 655.375 655.375 L 0.625 655.375 Z M 0.625 0.625 " fill-opacity="1" fill-rule="nonzero"/></g></g></g></g></g></g><g clip-path="url(#fd843f2bba)"><g clip-path="url(#76fb06b9f4)"><g transform="matrix(1, 0, 0, 1, 65, 65)"><g clip-path="url(#000fe1a02b)"><g clip-path="url(#6d4ec7c787)"><g clip-path="url(#8aea1d4d7f)"><path fill="#2584ff" d="M 0.253906 0.253906 L 619.746094 0.253906 L 619.746094 619.746094 L 0.253906 619.746094 Z M 0.253906 0.253906 " fill-opacity="1" fill-rule="nonzero"/></g></g></g></g></g></g><g clip-path="url(#edeb0074fb)"><g clip-path="url(#c9d02af569)"><g transform="matrix(1, 0, 0, 1, 76, 75)"><g clip-path="url(#285262d02a)"><g clip-path="url(#e63a2ad295)"><g clip-path="url(#c4732e6f31)"><path fill="#1c2c5b" d="M 0.046875 0 L 599 0 L 599 598.953125 L 0.046875 598.953125 Z M 0.046875 0 " fill-opacity="1" fill-rule="nonzero"/></g></g></g></g></g></g><g clip-path="url(#0946bbd970)"><g clip-path="url(#4320848b47)"><g transform="matrix(1, 0, 0, 1, 88, 88)"><g clip-path="url(#c734e4cdc5)"><g clip-path="url(#994c5fa5bb)"><g clip-path="url(#8dfd18c148)"><path fill="#ffffff" d="M 0.554688 0.554688 L 573.445312 0.554688 L 573.445312 573.445312 L 0.554688 573.445312 Z M 0.554688 0.554688 " fill-opacity="1" fill-rule="nonzero"/></g></g></g></g></g></g><g clip-path="url(#44e1d049fa)"><g clip-path="url(#12cc1741a7)"><path stroke-linecap="butt" transform="matrix(0.75, 0, 0, 0.75, 88.555194, 88.555211)" fill="none" stroke-linejoin="miter" d="M 381.921219 -0.000697846 C 170.994125 -0.000697846 -0.000674713 170.994102 -0.000674713 381.921196 C -0.000674713 592.853498 170.994125 763.843089 381.921219 763.843089 C 592.853521 763.843089 763.843113 592.853498 763.843113 381.921196 C 763.843113 170.994102 592.853521 -0.000697846 381.921219 -0.000697846 Z M 381.921219 -0.000697846 " stroke="#162144" stroke-width="8" stroke-opacity="1" stroke-miterlimit="4"/></g></g><g clip-path="url(#c2c38a4b5b)"><g clip-path="url(#0ecf3f770c)"><g transform="matrix(1, 0, 0, 1, 186, 185)"><g clip-path="url(#4165a008b8)"><g clip-path="url(#cf697af928)"><g clip-path="url(#b982e12c20)"><path fill="#1c2c5b" d="M 0.125 0.230469 L 379.667969 0.230469 L 379.667969 379.769531 L 0.125 379.769531 Z M 0.125 0.230469 " fill-opacity="1" fill-rule="nonzero"/></g></g></g></g></g></g><g clip-path="url(#77510c4c8a)"><g clip-path="url(#ee1a4ea305)"><g transform="matrix(1, 0, 0, 1, 200, 200)"><g clip-path="url(#5b7092597b)"><g clip-path="url(#97a07e6c8a)"><g clip-path="url(#7fd7a4e07f)"><path fill="#ffffff" d="M 0.292969 0.292969 L 352.929688 0.292969 L 352.929688 352.929688 L 0.292969 352.929688 Z M 0.292969 0.292969 " fill-opacity="1" fill-rule="nonzero"/></g></g></g></g></g></g><g clip-path="url(#c393d5981f)"><g clip-path="url(#7176d28982)"><g transform="matrix(1, 0, 0, 1, 209, 209)"><g clip-path="url(#c29a9673a8)"><g clip-path="url(#22efd35f1f)"><g clip-path="url(#37c39fd060)"><path fill="#2584ff" d="M 0.0703125 0.0703125 L 331.929688 0.0703125 L 331.929688 331.929688 L 0.0703125 331.929688 Z M 0.0703125 0.0703125 " fill-opacity="1" fill-rule="nonzero"/></g></g></g></g></g></g><g fill="#1c2c5b" fill-opacity="1"><g transform="translate(222.661602, 504.568904)"><g><path d="M -53.234375 34.25 L -53.875 34.109375 C -55.1875 31.804688 -56.539062 29.46875 -57.9375 27.09375 C -59.332031 24.726562 -60.835938 22.28125 -62.453125 19.75 C -63.992188 17.320312 -65.554688 14.941406 -67.140625 12.609375 C -68.734375 10.273438 -70.285156 8.03125 -71.796875 5.875 L -71.671875 5.234375 L -67.875 2.8125 L -67.21875 2.96875 C -65.707031 4.550781 -64.660156 5.679688 -64.078125 6.359375 C -63.503906 7.046875 -62.96875 7.441406 -62.46875 7.546875 C -61.65625 7.691406 -60.304688 7.238281 -58.421875 6.1875 C -56.546875 5.144531 -54.0625 3.640625 -50.96875 1.671875 L -33.734375 -9.265625 C -29.554688 -11.921875 -27.003906 -14.863281 -26.078125 -18.09375 C -25.160156 -21.332031 -25.984375 -24.96875 -28.546875 -29 C -30.878906 -32.675781 -33.253906 -35.140625 -35.671875 -36.390625 C -38.097656 -37.640625 -40.710938 -37.898438 -43.515625 -37.171875 C -46.328125 -36.441406 -49.46875 -34.976562 -52.9375 -32.78125 L -67.75 -23.375 C -70.582031 -21.570312 -72.644531 -20.203125 -73.9375 -19.265625 C -75.238281 -18.335938 -76.082031 -17.660156 -76.46875 -17.234375 C -76.851562 -16.804688 -77.09375 -16.453125 -77.1875 -16.171875 C -77.375 -15.535156 -77.3125 -14.859375 -77 -14.140625 C -76.695312 -13.429688 -76.097656 -11.914062 -75.203125 -9.59375 L -75.34375 -8.96875 L -79.140625 -6.546875 L -79.78125 -6.6875 C -80.53125 -8.101562 -81.390625 -9.660156 -82.359375 -11.359375 C -83.335938 -13.066406 -84.332031 -14.71875 -85.34375 -16.3125 C -86.332031 -17.875 -87.414062 -19.492188 -88.59375 -21.171875 C -89.78125 -22.859375 -90.945312 -24.492188 -92.09375 -26.078125 L -91.953125 -26.703125 L -88.15625 -29.125 L -87.515625 -28.984375 C -85.941406 -27.296875 -84.847656 -26.117188 -84.234375 -25.453125 C -83.628906 -24.785156 -83.09375 -24.421875 -82.625 -24.359375 C -82.363281 -24.316406 -81.882812 -24.398438 -81.1875 -24.609375 C -80.5 -24.828125 -79.4375 -25.34375 -78 -26.15625 C -76.5625 -26.96875 -74.523438 -28.210938 -71.890625 -29.890625 L -54.65625 -40.828125 C -50.007812 -43.785156 -45.570312 -45.566406 -41.34375 -46.171875 C -37.125 -46.785156 -33.019531 -45.835938 -29.03125 -43.328125 C -25.039062 -40.816406 -21.023438 -36.378906 -16.984375 -30.015625 C -13.566406 -24.640625 -11.523438 -19.820312 -10.859375 -15.5625 C -10.203125 -11.3125 -10.710938 -7.597656 -12.390625 -4.421875 C -14.078125 -1.253906 -16.726562 1.476562 -20.34375 3.78125 L -41.84375 17.421875 C -45.457031 19.710938 -47.878906 21.335938 -49.109375 22.296875 C -50.347656 23.265625 -51.0625 24 -51.25 24.5 C -51.425781 24.820312 -51.492188 25.148438 -51.453125 25.484375 C -51.410156 25.828125 -51.226562 26.421875 -50.90625 27.265625 C -50.59375 28.117188 -50.054688 29.429688 -49.296875 31.203125 L -49.4375 31.828125 Z M -53.234375 34.25 "/></g></g></g><g fill="#1c2c5b" fill-opacity="1"><g transform="translate(184.243403, 441.105213)"><g><path d="M -50.078125 -17.546875 L -27.5625 -22.90625 C -25.289062 -23.445312 -23.101562 -24 -21 -24.5625 C -18.894531 -25.125 -16.28125 -25.84375 -13.15625 -26.71875 L -15.109375 -34.9375 C -15.535156 -36.71875 -16.125 -38.601562 -16.875 -40.59375 C -17.632812 -42.59375 -18.46875 -44.175781 -19.375 -45.34375 C -20.625 -45.550781 -22.003906 -45.660156 -23.515625 -45.671875 C -25.035156 -45.691406 -26.476562 -45.671875 -27.84375 -45.609375 L -28.40625 -45.9375 L -29.5 -50.59375 L -29.140625 -51.046875 C -26.359375 -51.265625 -23.695312 -51.582031 -21.15625 -52 C -18.613281 -52.425781 -15.9375 -52.9375 -13.125 -53.53125 L -12.21875 -53.296875 C -11.425781 -49.503906 -10.613281 -45.644531 -9.78125 -41.71875 C -8.945312 -37.800781 -8.023438 -33.722656 -7.015625 -29.484375 C -6.734375 -28.296875 -6.335938 -26.707031 -5.828125 -24.71875 C -5.328125 -22.726562 -4.785156 -20.585938 -4.203125 -18.296875 C -3.628906 -16.015625 -3.050781 -13.78125 -2.46875 -11.59375 C -1.882812 -9.40625 -1.375 -7.515625 -0.9375 -5.921875 L -1.28125 -5.359375 L -3.875 -4.734375 L -4.421875 -5.09375 C -5.140625 -5.988281 -5.753906 -6.769531 -6.265625 -7.4375 C -6.773438 -8.101562 -7.300781 -8.40625 -7.84375 -8.34375 C -8.019531 -8.300781 -8.738281 -8.15625 -10 -7.90625 C -11.269531 -7.664062 -12.851562 -7.351562 -14.75 -6.96875 C -16.644531 -6.582031 -18.640625 -6.171875 -20.734375 -5.734375 C -22.828125 -5.296875 -24.796875 -4.859375 -26.640625 -4.421875 L -45.859375 0.15625 C -49.960938 1.125 -52.769531 1.863281 -54.28125 2.375 C -55.800781 2.894531 -56.738281 3.359375 -57.09375 3.765625 C -57.394531 4.085938 -57.578125 4.429688 -57.640625 4.796875 C -57.710938 5.160156 -57.722656 5.773438 -57.671875 6.640625 C -57.617188 7.503906 -57.535156 8.867188 -57.421875 10.734375 L -57.75 11.28125 L -62.125 12.328125 L -62.6875 12 C -63.144531 9.519531 -63.691406 6.75 -64.328125 3.6875 C -64.960938 0.632812 -65.554688 -2.050781 -66.109375 -4.375 C -66.660156 -6.707031 -67.332031 -9.351562 -68.125 -12.3125 C -68.925781 -15.269531 -69.695312 -18.015625 -70.4375 -20.546875 L -70.09375 -21.09375 L -65.71875 -22.140625 L -65.171875 -21.8125 C -64.429688 -20.09375 -63.890625 -18.84375 -63.546875 -18.0625 C -63.210938 -17.289062 -62.953125 -16.773438 -62.765625 -16.515625 C -62.578125 -16.253906 -62.367188 -16.050781 -62.140625 -15.90625 C -61.566406 -15.539062 -60.394531 -15.488281 -58.625 -15.75 C -56.863281 -16.019531 -54.015625 -16.617188 -50.078125 -17.546875 Z M -50.078125 -17.546875 "/></g></g></g><g fill="#1c2c5b" fill-opacity="1"><g transform="translate(170.20682, 381.616771)"><g><path d="M -40.109375 -43.828125 L -15.390625 -41.859375 C -11.410156 -41.546875 -8.578125 -41.398438 -6.890625 -41.421875 C -5.203125 -41.441406 -4.070312 -41.613281 -3.5 -41.9375 C -3.175781 -42.15625 -2.921875 -42.441406 -2.734375 -42.796875 C -2.554688 -43.148438 -2.375 -43.75 -2.1875 -44.59375 C -2 -45.4375 -1.65625 -46.695312 -1.15625 -48.375 L -0.640625 -48.8125 L 3.84375 -48.453125 L 4.25 -47.953125 C 3.925781 -45.335938 3.613281 -42.691406 3.3125 -40.015625 C 3.007812 -37.335938 2.734375 -34.441406 2.484375 -31.328125 C 2.285156 -28.878906 2.113281 -26.140625 1.96875 -23.109375 C 1.820312 -20.085938 1.703125 -17.257812 1.609375 -14.625 L 1.125 -14.1875 L -3.359375 -14.546875 L -3.796875 -15.046875 C -3.953125 -16.835938 -4.070312 -18.148438 -4.15625 -18.984375 C -4.25 -19.828125 -4.359375 -20.4375 -4.484375 -20.8125 C -4.609375 -21.195312 -4.8125 -21.519531 -5.09375 -21.78125 C -5.539062 -22.1875 -6.582031 -22.53125 -8.21875 -22.8125 C -9.863281 -23.101562 -12.734375 -23.410156 -16.828125 -23.734375 L -41.546875 -25.703125 C -42.898438 -25.804688 -44.460938 -25.910156 -46.234375 -26.015625 C -48.015625 -26.128906 -49.664062 -26.210938 -51.1875 -26.265625 C -52.71875 -26.328125 -53.785156 -26.382812 -54.390625 -26.4375 C -54.515625 -24.90625 -54.617188 -23.460938 -54.703125 -22.109375 C -54.785156 -20.765625 -54.851562 -18.929688 -54.90625 -16.609375 C -54.882812 -15.378906 -54.820312 -14.421875 -54.71875 -13.734375 C -54.625 -13.046875 -54.3125 -12.53125 -53.78125 -12.1875 C -53.3125 -11.84375 -52.347656 -11.535156 -50.890625 -11.265625 C -49.441406 -11.003906 -47.84375 -10.742188 -46.09375 -10.484375 L -45.671875 -9.890625 L -46.046875 -5.21875 L -46.53125 -4.8125 C -49.28125 -5.019531 -52.054688 -5.203125 -54.859375 -5.359375 C -57.671875 -5.523438 -60.40625 -5.554688 -63.0625 -5.453125 L -63.484375 -5.96875 C -63.117188 -9.800781 -62.765625 -13.300781 -62.421875 -16.46875 C -62.078125 -19.644531 -61.757812 -22.816406 -61.46875 -25.984375 C -61.1875 -29.148438 -60.898438 -32.597656 -60.609375 -36.328125 C -60.328125 -39.867188 -60.082031 -43.117188 -59.875 -46.078125 C -59.675781 -49.046875 -59.492188 -52.148438 -59.328125 -55.390625 C -59.171875 -58.640625 -58.953125 -62.4375 -58.671875 -66.78125 L -58.15625 -67.203125 C -56.53125 -66.953125 -54.695312 -66.679688 -52.65625 -66.390625 C -50.625 -66.109375 -48.644531 -65.875 -46.71875 -65.6875 C -44.800781 -65.5 -43.144531 -65.351562 -41.75 -65.25 L -41.328125 -64.75 L -41.703125 -60.078125 L -42.203125 -59.578125 C -44.960938 -59.597656 -46.878906 -59.5625 -47.953125 -59.46875 C -49.035156 -59.375 -49.773438 -59.21875 -50.171875 -59 C -50.742188 -58.675781 -51.148438 -58.125 -51.390625 -57.34375 C -51.578125 -56.6875 -51.820312 -55.1875 -52.125 -52.84375 C -52.425781 -50.5 -52.691406 -47.925781 -52.921875 -45.125 C -51.273438 -44.988281 -49.234375 -44.773438 -46.796875 -44.484375 C -44.359375 -44.203125 -42.128906 -43.984375 -40.109375 -43.828125 Z M -40.109375 -43.828125 "/></g></g></g><g fill="#1c2c5b" fill-opacity="1"><g transform="translate(177.565187, 315.493847)"><g><path d="M -58.65625 -23.9375 L -58.9375 -24.515625 C -57.957031 -26.828125 -56.882812 -29.4375 -55.71875 -32.34375 C -54.5625 -35.25 -53.578125 -37.820312 -52.765625 -40.0625 C -51.941406 -42.3125 -51.050781 -44.890625 -50.09375 -47.796875 C -49.132812 -50.710938 -48.257812 -53.425781 -47.46875 -55.9375 L -46.875 -56.21875 L -42.640625 -54.671875 L -42.375 -54.078125 C -42.71875 -52.242188 -42.957031 -50.910156 -43.09375 -50.078125 C -43.226562 -49.253906 -43.289062 -48.675781 -43.28125 -48.34375 C -43.269531 -48.019531 -43.210938 -47.738281 -43.109375 -47.5 C -42.816406 -46.875 -41.859375 -46.1875 -40.234375 -45.4375 C -38.617188 -44.6875 -35.914062 -43.617188 -32.125 -42.234375 L -7.703125 -33.328125 C -3.953125 -31.960938 -1.257812 -31.0625 0.375 -30.625 C 2.007812 -30.1875 3.144531 -30.046875 3.78125 -30.203125 C 4.15625 -30.335938 4.476562 -30.546875 4.75 -30.828125 C 5.019531 -31.117188 5.351562 -31.644531 5.75 -32.40625 C 6.15625 -33.175781 6.828125 -34.304688 7.765625 -35.796875 L 8.359375 -36.078125 L 12.59375 -34.53125 L 12.859375 -33.9375 C 11.847656 -31.507812 10.835938 -29.039062 9.828125 -26.53125 C 8.816406 -24.03125 7.773438 -21.3125 6.703125 -18.375 C 5.859375 -16.070312 4.960938 -13.484375 4.015625 -10.609375 C 3.066406 -7.734375 2.191406 -5.035156 1.390625 -2.515625 L 0.8125 -2.25 L -3.421875 -3.796875 L -3.703125 -4.375 C -3.367188 -6.15625 -3.128906 -7.457031 -2.984375 -8.28125 C -2.847656 -9.113281 -2.789062 -9.726562 -2.8125 -10.125 C -2.832031 -10.519531 -2.941406 -10.882812 -3.140625 -11.21875 C -3.472656 -11.726562 -4.390625 -12.335938 -5.890625 -13.046875 C -7.398438 -13.753906 -10.082031 -14.8125 -13.9375 -16.21875 L -38.359375 -25.125 C -41.578125 -26.300781 -43.9375 -27.113281 -45.4375 -27.5625 C -46.9375 -28.019531 -47.972656 -28.269531 -48.546875 -28.3125 C -49.117188 -28.351562 -49.546875 -28.332031 -49.828125 -28.25 C -50.191406 -28.175781 -50.5 -28.003906 -50.75 -27.734375 C -51.007812 -27.472656 -51.359375 -26.96875 -51.796875 -26.21875 C -52.234375 -25.46875 -52.914062 -24.28125 -53.84375 -22.65625 L -54.421875 -22.390625 Z M -58.65625 -23.9375 "/></g></g></g><g fill="#1c2c5b" fill-opacity="1"><g transform="translate(188.188662, 273.952099)"><g><path d="M -47.34375 -42.078125 L -47.40625 -42.734375 C -47.09375 -43.109375 -46.53125 -43.734375 -45.71875 -44.609375 C -44.90625 -45.484375 -44.023438 -46.460938 -43.078125 -47.546875 C -42.140625 -48.628906 -41.253906 -49.625 -40.421875 -50.53125 C -39.585938 -51.445312 -39 -52.113281 -38.65625 -52.53125 C -38.300781 -52.957031 -37.734375 -53.679688 -36.953125 -54.703125 C -36.179688 -55.734375 -35.304688 -56.859375 -34.328125 -58.078125 C -33.359375 -59.304688 -32.492188 -60.421875 -31.734375 -61.421875 C -30.984375 -62.429688 -30.472656 -63.097656 -30.203125 -63.421875 C -26.628906 -62.441406 -22.613281 -61.351562 -18.15625 -60.15625 C -13.695312 -58.96875 -9.078125 -57.785156 -4.296875 -56.609375 C 0.453125 -55.453125 4.179688 -54.5625 6.890625 -53.9375 C 9.597656 -53.320312 11.613281 -52.894531 12.9375 -52.65625 C 11.875 -55.226562 10.519531 -58.375 8.875 -62.09375 C 7.226562 -65.8125 5.425781 -69.796875 3.46875 -74.046875 C 1.5625 -78.171875 -0.203125 -81.882812 -1.828125 -85.1875 C -3.460938 -88.5 -4.796875 -91.023438 -5.828125 -92.765625 C -3.773438 -95.035156 -2.109375 -96.867188 -0.828125 -98.265625 C 0.453125 -99.671875 1.546875 -100.914062 2.453125 -102 C 3.035156 -102.707031 3.835938 -103.75 4.859375 -105.125 C 5.890625 -106.5 6.90625 -107.84375 7.90625 -109.15625 C 8.914062 -110.46875 9.640625 -111.382812 10.078125 -111.90625 L 10.734375 -111.96875 L 14.203125 -109.09375 L 14.25 -108.4375 C 13.019531 -106.195312 12.210938 -104.695312 11.828125 -103.9375 C 11.441406 -103.1875 11.359375 -102.5625 11.578125 -102.0625 C 11.691406 -101.726562 12.21875 -101.09375 13.15625 -100.15625 C 14.09375 -99.21875 15.613281 -97.832031 17.71875 -96 C 19.820312 -94.175781 22.664062 -91.773438 26.25 -88.796875 C 32.5625 -83.554688 37.550781 -79.429688 41.21875 -76.421875 C 44.882812 -73.421875 47.25 -71.59375 48.3125 -70.9375 C 49.320312 -70.34375 50.347656 -70.285156 51.390625 -70.765625 C 52.429688 -71.253906 53.769531 -72.488281 55.40625 -74.46875 L 56.0625 -74.53125 L 59.53125 -71.65625 L 59.578125 -71 C 58.484375 -69.851562 57.195312 -68.441406 55.71875 -66.765625 C 54.238281 -65.085938 52.867188 -63.515625 51.609375 -62.046875 C 50.347656 -60.578125 49.445312 -59.515625 48.90625 -58.859375 C 47.695312 -57.398438 46.425781 -55.820312 45.09375 -54.125 C 43.769531 -52.4375 42.546875 -50.84375 41.421875 -49.34375 C 40.296875 -47.851562 39.363281 -46.664062 38.625 -45.78125 L 37.984375 -45.71875 L 34.515625 -48.59375 L 34.453125 -49.25 C 35.722656 -51.144531 36.550781 -52.46875 36.9375 -53.21875 C 37.320312 -53.96875 37.492188 -54.554688 37.453125 -54.984375 C 37.421875 -55.335938 37.160156 -55.816406 36.671875 -56.421875 C 36.179688 -57.023438 35.09375 -58.085938 33.40625 -59.609375 C 31.71875 -61.128906 29.109375 -63.359375 25.578125 -66.296875 L 8.609375 -80.390625 L 8.5 -80.25 C 11.382812 -73.550781 14.65625 -66.269531 18.3125 -58.40625 C 21.976562 -50.550781 25.757812 -42.5 29.65625 -34.25 L 26.53125 -30.5 C 22.695312 -31.539062 18.953125 -32.519531 15.296875 -33.4375 C 11.648438 -34.363281 7.90625 -35.289062 4.0625 -36.21875 C 0.21875 -37.15625 -3.945312 -38.15625 -8.4375 -39.21875 C -12.9375 -40.289062 -17.941406 -41.441406 -23.453125 -42.671875 L -23.578125 -42.515625 L -6.625 -28.421875 C -3.507812 -25.835938 -0.710938 -23.613281 1.765625 -21.75 C 4.242188 -19.894531 5.820312 -18.847656 6.5 -18.609375 C 6.8125 -18.503906 7.117188 -18.488281 7.421875 -18.5625 C 7.722656 -18.632812 8.21875 -18.941406 8.90625 -19.484375 C 9.59375 -20.023438 10.648438 -20.96875 12.078125 -22.3125 L 12.734375 -22.375 L 16.203125 -19.5 L 16.25 -18.84375 C 15.976562 -18.519531 15.5 -17.988281 14.8125 -17.25 C 14.125 -16.507812 13.375 -15.675781 12.5625 -14.75 C 11.757812 -13.832031 11.007812 -13.003906 10.3125 -12.265625 C 9.625 -11.535156 9.125 -10.976562 8.8125 -10.59375 C 8.257812 -9.9375 7.375 -8.800781 6.15625 -7.1875 C 4.9375 -5.570312 3.546875 -3.738281 1.984375 -1.6875 L 1.34375 -1.625 L -2.125 -4.5 L -2.1875 -5.15625 C -0.820312 -7.375 -0.0195312 -8.835938 0.21875 -9.546875 C 0.46875 -10.265625 0.476562 -10.867188 0.25 -11.359375 C 0.03125 -11.878906 -1.691406 -13.617188 -4.921875 -16.578125 C -8.148438 -19.535156 -12.710938 -23.460938 -18.609375 -28.359375 C -20.390625 -29.835938 -22.328125 -31.425781 -24.421875 -33.125 C -26.523438 -34.832031 -28.570312 -36.472656 -30.5625 -38.046875 C -32.5625 -39.628906 -34.253906 -40.921875 -35.640625 -41.921875 C -36.660156 -42.609375 -37.523438 -42.929688 -38.234375 -42.890625 C -38.953125 -42.847656 -39.640625 -42.535156 -40.296875 -41.953125 C -40.890625 -41.410156 -41.394531 -40.929688 -41.8125 -40.515625 C -42.238281 -40.109375 -42.710938 -39.691406 -43.234375 -39.265625 L -43.875 -39.203125 Z M -47.34375 -42.078125 "/></g></g></g><g fill="#1c2c5b" fill-opacity="1"><g transform="translate(252.140669, 201.569)"><g><path d="M -1.4375 -70.625 L 5.953125 -74.328125 L 50.984375 -36.484375 C 51.960938 -35.609375 52.765625 -35.019531 53.390625 -34.71875 C 54.023438 -34.414062 54.632812 -34.238281 55.21875 -34.1875 C 55.789062 -34.132812 56.398438 -34.203125 57.046875 -34.390625 C 57.703125 -34.585938 58.71875 -35.03125 60.09375 -35.71875 L 60.71875 -35.5 L 62.734375 -31.484375 L 62.53125 -30.875 C 60.007812 -29.738281 57.507812 -28.601562 55.03125 -27.46875 C 52.550781 -26.332031 49.890625 -25.046875 47.046875 -23.609375 C 45.953125 -23.066406 44.128906 -22.117188 41.578125 -20.765625 C 39.035156 -19.421875 35.8125 -17.664062 31.90625 -15.5 L 31.28125 -15.703125 L 29.265625 -19.71875 L 29.46875 -20.34375 C 31.050781 -21.269531 32.347656 -22.160156 33.359375 -23.015625 C 34.378906 -23.867188 34.707031 -24.65625 34.34375 -25.375 C 34.019531 -26.019531 33.414062 -26.742188 32.53125 -27.546875 L 27.9375 -31.796875 C 24.976562 -30.171875 22.003906 -28.546875 19.015625 -26.921875 C 16.035156 -25.296875 12.878906 -23.847656 9.546875 -22.578125 L 10.03125 -17.890625 C 10.207031 -16.328125 10.472656 -15.1875 10.828125 -14.46875 C 11.347656 -13.4375 12.242188 -13.015625 13.515625 -13.203125 C 14.785156 -13.398438 16.320312 -13.882812 18.125 -14.65625 L 18.765625 -14.453125 L 20.78125 -10.4375 L 20.5625 -9.8125 C 18.925781 -9.125 17.265625 -8.40625 15.578125 -7.65625 C 13.898438 -6.914062 12.101562 -6.066406 10.1875 -5.109375 C 8.4375 -4.234375 6.785156 -3.351562 5.234375 -2.46875 C 3.691406 -1.59375 2.015625 -0.632812 0.203125 0.40625 L -0.40625 0.203125 L -2.421875 -3.8125 L -2.234375 -4.4375 C -1.210938 -5.007812 -0.394531 -5.535156 0.21875 -6.015625 C 0.832031 -6.492188 1.273438 -6.941406 1.546875 -7.359375 C 1.847656 -7.859375 2.023438 -8.429688 2.078125 -9.078125 C 2.128906 -9.722656 2.113281 -10.804688 2.03125 -12.328125 Z M 6.984375 -50.375 L 8.78125 -29.59375 L 22.578125 -36.53125 Z M 6.984375 -50.375 "/></g></g></g><g fill="#1c2c5b" fill-opacity="1"><g transform="translate(317.321993, 170.022987)"><g><path d="M 34.75 -48.1875 L 37.859375 -23.59375 C 38.359375 -19.632812 38.785156 -16.828125 39.140625 -15.171875 C 39.503906 -13.523438 39.90625 -12.453125 40.34375 -11.953125 C 40.625 -11.679688 40.957031 -11.488281 41.34375 -11.375 C 41.726562 -11.269531 42.351562 -11.210938 43.21875 -11.203125 C 44.082031 -11.191406 45.390625 -11.113281 47.140625 -10.96875 L 47.65625 -10.5625 L 48.21875 -6.09375 L 47.828125 -5.59375 C 45.191406 -5.375 42.53125 -5.140625 39.84375 -4.890625 C 37.164062 -4.648438 34.273438 -4.332031 31.171875 -3.9375 C 28.742188 -3.632812 26.03125 -3.242188 23.03125 -2.765625 C 20.039062 -2.296875 17.25 -1.835938 14.65625 -1.390625 L 14.125 -1.78125 L 13.5625 -6.25 L 13.96875 -6.765625 C 15.675781 -7.285156 16.929688 -7.671875 17.734375 -7.921875 C 18.546875 -8.179688 19.125 -8.410156 19.46875 -8.609375 C 19.8125 -8.816406 20.082031 -9.085938 20.28125 -9.421875 C 20.59375 -9.953125 20.722656 -11.046875 20.671875 -12.703125 C 20.617188 -14.367188 20.332031 -17.238281 19.8125 -21.3125 L 16.703125 -45.90625 C 16.535156 -47.25 16.320312 -48.800781 16.0625 -50.5625 C 15.8125 -52.320312 15.554688 -53.957031 15.296875 -55.46875 C 15.046875 -56.976562 14.882812 -58.035156 14.8125 -58.640625 C 13.289062 -58.453125 11.859375 -58.257812 10.515625 -58.0625 C 9.179688 -57.863281 7.375 -57.554688 5.09375 -57.140625 C 3.882812 -56.859375 2.957031 -56.597656 2.3125 -56.359375 C 1.664062 -56.128906 1.226562 -55.71875 1 -55.125 C 0.75 -54.613281 0.640625 -53.613281 0.671875 -52.125 C 0.703125 -50.644531 0.773438 -49.019531 0.890625 -47.25 L 0.390625 -46.734375 L -4.265625 -46.15625 L -4.765625 -46.53125 C -5.117188 -49.269531 -5.5 -52.03125 -5.90625 -54.8125 C -6.3125 -57.59375 -6.835938 -60.273438 -7.484375 -62.859375 L -7.078125 -63.375 C -3.242188 -63.800781 0.253906 -64.164062 3.421875 -64.46875 C 6.597656 -64.78125 9.765625 -65.117188 12.921875 -65.484375 C 16.085938 -65.847656 19.523438 -66.265625 23.234375 -66.734375 C 26.753906 -67.179688 29.984375 -67.609375 32.921875 -68.015625 C 35.867188 -68.421875 38.945312 -68.875 42.15625 -69.375 C 45.375 -69.875 49.132812 -70.425781 53.4375 -71.03125 L 53.953125 -70.625 C 54.046875 -68.96875 54.15625 -67.113281 54.28125 -65.0625 C 54.414062 -63.007812 54.585938 -61.023438 54.796875 -59.109375 C 55.015625 -57.191406 55.210938 -55.535156 55.390625 -54.140625 L 54.984375 -53.640625 L 50.328125 -53.046875 L 49.75 -53.421875 C 49.207031 -56.140625 48.78125 -58.015625 48.46875 -59.046875 C 48.15625 -60.085938 47.847656 -60.773438 47.546875 -61.109375 C 47.117188 -61.617188 46.5 -61.910156 45.6875 -61.984375 C 45.007812 -62.023438 43.488281 -61.957031 41.125 -61.78125 C 38.769531 -61.601562 36.195312 -61.34375 33.40625 -61 C 33.613281 -59.363281 33.828125 -57.316406 34.046875 -54.859375 C 34.265625 -52.410156 34.5 -50.1875 34.75 -48.1875 Z M 34.75 -48.1875 "/></g></g></g><g fill="#1c2c5b" fill-opacity="1"><g transform="translate(382.816635, 162.50005)"><g><path d="M 29.765625 5.75 C 28.441406 5.488281 26.769531 5.179688 24.75 4.828125 C 22.726562 4.472656 20.570312 4.085938 18.28125 3.671875 C 15.988281 3.265625 13.738281 2.878906 11.53125 2.515625 C 9.320312 2.160156 7.40625 1.84375 5.78125 1.5625 L 5.421875 1.046875 L 5.921875 -1.578125 L 6.453125 -1.9375 C 7.566406 -2.226562 8.53125 -2.460938 9.34375 -2.640625 C 10.164062 -2.828125 10.664062 -3.242188 10.84375 -3.890625 C 10.882812 -4.078125 11.054688 -4.789062 11.359375 -6.03125 C 11.660156 -7.28125 12.019531 -8.832031 12.4375 -10.6875 C 12.863281 -12.539062 13.304688 -14.5 13.765625 -16.5625 C 14.222656 -18.625 14.632812 -20.585938 15 -22.453125 L 18.546875 -40.859375 C 19.148438 -43.992188 19.582031 -46.390625 19.84375 -48.046875 C 20.101562 -49.710938 20.242188 -50.945312 20.265625 -51.75 C 20.296875 -52.5625 20.234375 -53.171875 20.078125 -53.578125 C 19.921875 -54.109375 19.484375 -54.519531 18.765625 -54.8125 C 18.046875 -55.101562 16.410156 -55.75 13.859375 -56.75 L 13.484375 -57.28125 L 14.34375 -61.703125 L 14.875 -62.078125 C 17.15625 -61.566406 19.847656 -60.960938 22.953125 -60.265625 C 26.066406 -59.566406 29.179688 -58.898438 32.296875 -58.265625 C 35.421875 -57.640625 38.039062 -57.125 40.15625 -56.71875 C 45.863281 -55.625 50.769531 -54.738281 54.875 -54.0625 C 58.988281 -53.394531 62.554688 -52.800781 65.578125 -52.28125 L 65.84375 -51.296875 C 65.132812 -49.492188 64.523438 -47.921875 64.015625 -46.578125 C 63.503906 -45.242188 63.078125 -43.941406 62.734375 -42.671875 C 62.390625 -41.398438 62 -39.9375 61.5625 -38.28125 L 61.03125 -37.890625 L 56.890625 -38.703125 L 56.5 -39.25 C 56.613281 -40.15625 56.75 -41.03125 56.90625 -41.875 C 57.070312 -42.71875 57.179688 -43.546875 57.234375 -44.359375 C 57.253906 -45.160156 56.289062 -45.929688 54.34375 -46.671875 C 52.40625 -47.421875 49.628906 -48.144531 46.015625 -48.84375 C 43.429688 -49.34375 41.148438 -49.660156 39.171875 -49.796875 C 38.847656 -48.742188 38.539062 -47.632812 38.25 -46.46875 C 37.96875 -45.300781 37.644531 -43.753906 37.28125 -41.828125 L 35.03125 -30.203125 C 35.613281 -30.023438 36.304688 -29.828125 37.109375 -29.609375 C 37.910156 -29.390625 39.15625 -29.117188 40.84375 -28.796875 C 41.863281 -28.597656 42.976562 -28.394531 44.1875 -28.1875 C 45.394531 -27.988281 46.347656 -27.914062 47.046875 -27.96875 C 48.128906 -28.070312 48.898438 -28.515625 49.359375 -29.296875 C 49.816406 -30.085938 50.234375 -31.445312 50.609375 -33.375 L 50.65625 -33.640625 L 51.203125 -34 L 55.625 -33.15625 L 55.96875 -32.609375 C 55.769531 -31.578125 55.441406 -30.109375 54.984375 -28.203125 C 54.535156 -26.304688 54.175781 -24.671875 53.90625 -23.296875 C 53.757812 -22.503906 53.550781 -21.320312 53.28125 -19.75 C 53.007812 -18.1875 52.757812 -16.691406 52.53125 -15.265625 C 52.3125 -13.835938 52.171875 -12.941406 52.109375 -12.578125 L 51.578125 -12.234375 L 47.15625 -13.078125 L 46.796875 -13.609375 C 47.117188 -15.910156 47.285156 -17.4375 47.296875 -18.1875 C 47.316406 -18.945312 47.144531 -19.515625 46.78125 -19.890625 C 46.082031 -20.710938 43.445312 -21.566406 38.875 -22.453125 C 38.019531 -22.617188 37.179688 -22.757812 36.359375 -22.875 C 35.546875 -23 34.65625 -23.125 33.6875 -23.25 L 32.296875 -16.03125 C 32.078125 -14.894531 31.863281 -13.734375 31.65625 -12.546875 C 31.457031 -11.367188 31.21875 -9.898438 30.9375 -8.140625 C 30.664062 -6.390625 30.269531 -4.003906 29.75 -0.984375 L 38.0625 0.625 C 39.625 0.925781 41.484375 1.144531 43.640625 1.28125 C 45.796875 1.414062 47.6875 1.328125 49.3125 1.015625 C 49.757812 0.273438 50.25 -0.582031 50.78125 -1.5625 C 51.320312 -2.550781 52.015625 -3.960938 52.859375 -5.796875 L 53.40625 -6.15625 L 58.09375 -5.25 L 58.359375 -4.734375 C 58.003906 -3.796875 57.625 -2.710938 57.21875 -1.484375 C 56.820312 -0.253906 56.410156 1.1875 55.984375 2.84375 C 55.503906 4.632812 55.160156 5.992188 54.953125 6.921875 C 54.742188 7.847656 54.492188 8.878906 54.203125 10.015625 L 53.609375 10.796875 C 49.828125 9.960938 45.851562 9.09375 41.6875 8.1875 C 37.53125 7.289062 33.554688 6.476562 29.765625 5.75 Z M 29.765625 5.75 "/></g></g></g><g fill="#1c2c5b" fill-opacity="1"><g transform="translate(444.985232, 176.967751)"><g/></g></g><g fill="#1c2c5b" fill-opacity="1"><g transform="translate(474.572869, 189.067554)"><g><path d="M 64.609375 -32.203125 C 66.929688 -30.410156 69.117188 -28.382812 71.171875 -26.125 C 73.234375 -23.875 75.078125 -21.457031 76.703125 -18.875 L 76.65625 -17.75 C 74.90625 -16.082031 73.1875 -14.390625 71.5 -12.671875 C 69.820312 -10.953125 68.203125 -9.1875 66.640625 -7.375 L 65.9375 -7.359375 L 62.515625 -10.015625 L 62.359375 -10.703125 C 63.191406 -11.992188 63.9375 -13.15625 64.59375 -14.1875 C 65.25 -15.226562 65.675781 -15.976562 65.875 -16.4375 C 66.03125 -16.632812 66.046875 -17.304688 65.921875 -18.453125 C 65.796875 -19.597656 65.28125 -20.984375 64.375 -22.609375 C 63.476562 -24.242188 61.894531 -25.941406 59.625 -27.703125 C 57.113281 -29.648438 54.546875 -30.535156 51.921875 -30.359375 C 49.304688 -30.191406 47.148438 -29.015625 45.453125 -26.828125 C 43.765625 -24.648438 43.300781 -22.453125 44.0625 -20.234375 C 44.820312 -18.015625 46.785156 -15.300781 49.953125 -12.09375 C 55.390625 -6.613281 58.53125 -1.726562 59.375 2.5625 C 60.226562 6.863281 58.875 11.316406 55.3125 15.921875 C 51 21.484375 45.566406 24.363281 39.015625 24.5625 C 32.472656 24.769531 25.546875 22.035156 18.234375 16.359375 C 11.554688 11.179688 7.359375 6.445312 5.640625 2.15625 L 5.71875 1.171875 C 6.332031 0.578125 7.050781 -0.148438 7.875 -1.015625 C 8.707031 -1.890625 9.660156 -2.921875 10.734375 -4.109375 C 11.847656 -5.347656 12.84375 -6.476562 13.71875 -7.5 C 14.601562 -8.519531 15.304688 -9.367188 15.828125 -10.046875 L 16.53125 -10.078125 L 20.015625 -7.375 L 20.109375 -6.734375 C 17.796875 -3.648438 16.671875 -0.609375 16.734375 2.390625 C 16.804688 5.390625 18.441406 8.128906 21.640625 10.609375 C 24.691406 12.972656 27.726562 14.128906 30.75 14.078125 C 33.769531 14.023438 36.238281 12.765625 38.15625 10.296875 C 39.09375 9.085938 39.65625 7.988281 39.84375 7 C 40.03125 6.007812 39.960938 4.972656 39.640625 3.890625 C 39.335938 2.785156 38.664062 1.5 37.625 0.03125 C 36.582031 -1.425781 35.03125 -3.222656 32.96875 -5.359375 C 28.851562 -9.628906 26.46875 -13.9375 25.8125 -18.28125 C 25.15625 -22.632812 26.6875 -27.207031 30.40625 -32 C 34.300781 -37.03125 39.195312 -39.703125 45.09375 -40.015625 C 51 -40.328125 57.503906 -37.722656 64.609375 -32.203125 Z M 64.609375 -32.203125 "/></g></g></g><g fill="#1c2c5b" fill-opacity="1"><g transform="translate(523.344213, 225.496248)"><g><path d="M 73.28125 -3.671875 L 73.140625 -3.046875 L 69.34375 -0.625 L 68.703125 -0.765625 C 67.453125 -2.148438 66.539062 -3.148438 65.96875 -3.765625 C 65.394531 -4.390625 64.972656 -4.796875 64.703125 -4.984375 C 64.429688 -5.171875 64.171875 -5.296875 63.921875 -5.359375 C 63.242188 -5.503906 62.117188 -5.160156 60.546875 -4.328125 C 58.972656 -3.503906 56.484375 -2.007812 53.078125 0.15625 L 44.625 5.546875 C 46.644531 6.210938 48.910156 6.832031 51.421875 7.40625 C 53.929688 7.988281 56.082031 8.441406 57.875 8.765625 L 76.671875 11.90625 L 80.9375 9.1875 L 81.578125 9.328125 C 82.328125 10.734375 83.113281 12.171875 83.9375 13.640625 C 84.769531 15.117188 85.695312 16.65625 86.71875 18.25 C 87.769531 19.90625 88.859375 21.5 89.984375 23.03125 C 91.109375 24.570312 91.976562 25.765625 92.59375 26.609375 L 92.453125 27.25 L 88.65625 29.671875 L 88.015625 29.515625 C 86.460938 27.316406 85.050781 25.675781 83.78125 24.59375 C 82.507812 23.507812 80.972656 22.640625 79.171875 21.984375 C 77.410156 21.285156 74.378906 20.382812 70.078125 19.28125 C 65.773438 18.175781 60.800781 17.0625 55.15625 15.9375 C 53.414062 21.039062 51.867188 25.835938 50.515625 30.328125 C 49.171875 34.828125 47.972656 39.046875 46.921875 42.984375 C 45.785156 46.898438 44.988281 49.835938 44.53125 51.796875 C 44.070312 53.765625 43.742188 55.273438 43.546875 56.328125 C 43.453125 56.984375 43.453125 57.640625 43.546875 58.296875 C 43.648438 58.960938 43.945312 59.679688 44.4375 60.453125 L 45.484375 62.09375 L 45.34375 62.71875 L 41.546875 65.140625 L 40.921875 65.015625 C 39.960938 63.296875 38.925781 61.476562 37.8125 59.5625 C 36.707031 57.65625 35.597656 55.820312 34.484375 54.0625 C 33.753906 52.9375 32.914062 51.6875 31.96875 50.3125 C 31.03125 48.945312 30.140625 47.6875 29.296875 46.53125 C 28.453125 45.375 27.785156 44.410156 27.296875 43.640625 C 28.148438 41.691406 29.066406 39.410156 30.046875 36.796875 C 31.035156 34.179688 32.050781 31.300781 33.09375 28.15625 C 35.132812 21.90625 36.988281 15.640625 38.65625 9.359375 L 31.15625 14.140625 C 27.789062 16.285156 25.4375 17.875 24.09375 18.90625 C 22.75 19.945312 21.945312 20.765625 21.6875 21.359375 C 21.5625 21.734375 21.53125 22.113281 21.59375 22.5 C 21.664062 22.894531 21.878906 23.488281 22.234375 24.28125 C 22.597656 25.070312 23.085938 26.289062 23.703125 27.9375 L 23.5625 28.5625 L 19.765625 30.984375 L 19.140625 30.859375 C 17.816406 28.566406 16.46875 26.257812 15.09375 23.9375 C 13.71875 21.613281 12.191406 19.132812 10.515625 16.5 C 9.203125 14.425781 7.691406 12.140625 5.984375 9.640625 C 4.273438 7.140625 2.664062 4.804688 1.15625 2.640625 L 1.28125 2.015625 L 5.078125 -0.40625 L 5.71875 -0.28125 C 6.9375 1.0625 7.828125 2.039062 8.390625 2.65625 C 8.960938 3.28125 9.410156 3.703125 9.734375 3.921875 C 10.066406 4.148438 10.429688 4.285156 10.828125 4.328125 C 11.429688 4.367188 12.472656 4.007812 13.953125 3.25 C 15.429688 2.488281 17.898438 1.003906 21.359375 -1.203125 L 43.28125 -15.1875 C 46.164062 -17.03125 48.242188 -18.40625 49.515625 -19.3125 C 50.785156 -20.226562 51.609375 -20.898438 51.984375 -21.328125 C 52.367188 -21.765625 52.617188 -22.117188 52.734375 -22.390625 C 52.890625 -22.710938 52.941406 -23.054688 52.890625 -23.421875 C 52.835938 -23.796875 52.644531 -24.378906 52.3125 -25.171875 C 51.976562 -25.972656 51.445312 -27.242188 50.71875 -28.984375 L 50.859375 -29.59375 L 54.65625 -32.015625 L 55.296875 -31.890625 C 56.535156 -29.703125 57.957031 -27.265625 59.5625 -24.578125 C 61.164062 -21.890625 62.609375 -19.539062 63.890625 -17.53125 C 65.179688 -15.507812 66.6875 -13.234375 68.40625 -10.703125 C 70.132812 -8.179688 71.757812 -5.835938 73.28125 -3.671875 Z M 73.28125 -3.671875 "/></g></g></g><g fill="#1c2c5b" fill-opacity="1"><g transform="translate(563.302331, 294.267817)"><g><path d="M 61.6875 -14.34375 L 62.265625 -14.03125 C 62.804688 -11.582031 63.441406 -8.835938 64.171875 -5.796875 C 64.898438 -2.753906 65.578125 -0.0820312 66.203125 2.21875 C 66.835938 4.53125 67.601562 7.148438 68.5 10.078125 C 69.40625 13.003906 70.257812 15.722656 71.0625 18.234375 L 70.734375 18.796875 L 66.390625 19.984375 L 65.828125 19.65625 C 65.046875 17.957031 64.472656 16.726562 64.109375 15.96875 C 63.742188 15.21875 63.460938 14.710938 63.265625 14.453125 C 63.066406 14.191406 62.859375 14 62.640625 13.875 C 62.035156 13.519531 60.859375 13.503906 59.109375 13.828125 C 57.359375 14.148438 54.53125 14.84375 50.625 15.90625 L 25.546875 22.75 C 21.691406 23.800781 18.972656 24.617188 17.390625 25.203125 C 15.804688 25.796875 14.800781 26.34375 14.375 26.84375 C 14.144531 27.15625 14 27.507812 13.9375 27.90625 C 13.882812 28.300781 13.914062 28.925781 14.03125 29.78125 C 14.144531 30.644531 14.25 31.953125 14.34375 33.703125 L 14.015625 34.265625 L 9.671875 35.453125 L 9.109375 35.140625 C 8.535156 32.566406 7.9375 29.960938 7.3125 27.328125 C 6.6875 24.703125 5.960938 21.882812 5.140625 18.875 C 4.503906 16.507812 3.738281 13.878906 2.84375 10.984375 C 1.957031 8.085938 1.113281 5.382812 0.3125 2.875 L 0.625 2.3125 L 4.96875 1.125 L 5.546875 1.4375 C 6.304688 3.082031 6.867188 4.28125 7.234375 5.03125 C 7.597656 5.789062 7.898438 6.320312 8.140625 6.625 C 8.390625 6.9375 8.691406 7.179688 9.046875 7.359375 C 9.617188 7.566406 10.722656 7.523438 12.359375 7.234375 C 13.992188 6.941406 16.789062 6.257812 20.75 5.1875 L 45.828125 -1.65625 C 49.140625 -2.5625 51.535156 -3.257812 53.015625 -3.75 C 54.503906 -4.25 55.492188 -4.644531 55.984375 -4.9375 C 56.472656 -5.226562 56.8125 -5.492188 57 -5.734375 C 57.25 -5.992188 57.398438 -6.304688 57.453125 -6.671875 C 57.515625 -7.035156 57.503906 -7.648438 57.421875 -8.515625 C 57.335938 -9.390625 57.207031 -10.753906 57.03125 -12.609375 L 57.34375 -13.15625 Z M 61.6875 -14.34375 "/></g></g></g><g fill="#1c2c5b" fill-opacity="1"><g transform="translate(575.364249, 335.917024)"><g><path d="M 44.859375 28.375 L 21.703125 28.53125 C 19.367188 28.539062 17.113281 28.582031 14.9375 28.65625 C 12.769531 28.726562 10.0625 28.835938 6.8125 28.984375 L 6.859375 37.4375 C 6.878906 39.269531 7.03125 41.242188 7.3125 43.359375 C 7.601562 45.472656 8.0625 47.203125 8.6875 48.546875 C 9.863281 49.035156 11.1875 49.457031 12.65625 49.8125 C 14.125 50.164062 15.53125 50.460938 16.875 50.703125 L 17.34375 51.15625 L 17.375 55.9375 L 16.921875 56.296875 C 14.160156 55.890625 11.492188 55.601562 8.921875 55.4375 C 6.347656 55.269531 3.625 55.164062 0.75 55.125 L -0.078125 54.671875 C 0.00390625 50.804688 0.078125 46.867188 0.140625 42.859375 C 0.210938 38.847656 0.234375 34.664062 0.203125 30.3125 C 0.191406 29.09375 0.164062 27.457031 0.125 25.40625 C 0.0820312 23.351562 0.0390625 21.144531 0 18.78125 C -0.0507812 16.425781 -0.113281 14.113281 -0.1875 11.84375 C -0.269531 9.582031 -0.34375 7.625 -0.40625 5.96875 L 0.03125 5.515625 L 2.703125 5.5 L 3.171875 5.953125 C 3.660156 6.984375 4.078125 7.878906 4.421875 8.640625 C 4.765625 9.410156 5.210938 9.828125 5.765625 9.890625 C 5.941406 9.878906 6.671875 9.898438 7.953125 9.953125 C 9.242188 10.015625 10.851562 10.066406 12.78125 10.109375 C 14.71875 10.160156 16.757812 10.207031 18.90625 10.25 C 21.050781 10.289062 23.070312 10.304688 24.96875 10.296875 L 44.734375 10.171875 C 48.953125 10.140625 51.851562 10.039062 53.4375 9.875 C 55.03125 9.71875 56.039062 9.484375 56.46875 9.171875 C 56.84375 8.921875 57.101562 8.625 57.25 8.28125 C 57.40625 7.945312 57.550781 7.351562 57.6875 6.5 C 57.832031 5.644531 58.054688 4.296875 58.359375 2.453125 L 58.8125 1.984375 L 63.3125 1.953125 L 63.78125 2.40625 C 63.675781 4.914062 63.585938 7.734375 63.515625 10.859375 C 63.441406 13.984375 63.414062 16.738281 63.4375 19.125 C 63.445312 21.519531 63.507812 24.25 63.625 27.3125 C 63.738281 30.375 63.867188 33.222656 64.015625 35.859375 L 63.546875 36.3125 L 59.046875 36.34375 L 58.59375 35.90625 C 58.269531 34.0625 58.03125 32.722656 57.875 31.890625 C 57.71875 31.066406 57.570312 30.503906 57.4375 30.203125 C 57.3125 29.898438 57.160156 29.65625 56.984375 29.46875 C 56.492188 28.988281 55.359375 28.675781 53.578125 28.53125 C 51.804688 28.394531 48.898438 28.34375 44.859375 28.375 Z M 44.859375 28.375 "/></g></g></g><g fill="#1c2c5b" fill-opacity="1"><g transform="translate(575.273498, 397.155841)"><g><path d="M 34.40625 40.40625 L 12.25 33.6875 C 10.007812 33.007812 7.84375 32.378906 5.75 31.796875 C 3.65625 31.222656 1.035156 30.523438 -2.109375 29.703125 L -4.5625 37.796875 C -5.09375 39.546875 -5.535156 41.46875 -5.890625 43.5625 C -6.242188 45.664062 -6.320312 47.457031 -6.125 48.9375 C -5.144531 49.75 -4.003906 50.539062 -2.703125 51.3125 C -1.410156 52.09375 -0.160156 52.796875 1.046875 53.421875 L 1.375 53.984375 L -0.015625 58.5625 L -0.578125 58.765625 C -3.078125 57.566406 -5.53125 56.503906 -7.9375 55.578125 C -10.351562 54.660156 -12.925781 53.753906 -15.65625 52.859375 L -16.328125 52.1875 C -15.085938 48.519531 -13.835938 44.78125 -12.578125 40.96875 C -11.328125 37.15625 -10.070312 33.164062 -8.8125 29 C -8.457031 27.832031 -7.992188 26.257812 -7.421875 24.28125 C -6.859375 22.3125 -6.25 20.195312 -5.59375 17.9375 C -4.9375 15.675781 -4.304688 13.453125 -3.703125 11.265625 C -3.109375 9.078125 -2.597656 7.1875 -2.171875 5.59375 L -1.609375 5.28125 L 0.953125 6.0625 L 1.25 6.625 C 1.414062 7.757812 1.550781 8.742188 1.65625 9.578125 C 1.757812 10.410156 2.066406 10.9375 2.578125 11.15625 C 2.753906 11.207031 3.445312 11.445312 4.65625 11.875 C 5.863281 12.3125 7.382812 12.84375 9.21875 13.46875 C 11.050781 14.09375 12.976562 14.738281 15 15.40625 C 17.03125 16.082031 18.953125 16.695312 20.765625 17.25 L 39.6875 22.984375 C 43.71875 24.210938 46.519531 24.984375 48.09375 25.296875 C 49.664062 25.617188 50.695312 25.703125 51.1875 25.546875 C 51.625 25.410156 51.960938 25.203125 52.203125 24.921875 C 52.441406 24.640625 52.757812 24.113281 53.15625 23.34375 C 53.550781 22.570312 54.164062 21.347656 55 19.671875 L 55.578125 19.359375 L 59.875 20.671875 L 60.1875 21.25 C 59.332031 23.613281 58.40625 26.273438 57.40625 29.234375 C 56.414062 32.203125 55.570312 34.828125 54.875 37.109375 C 54.175781 39.398438 53.425781 42.023438 52.625 44.984375 C 51.832031 47.941406 51.113281 50.703125 50.46875 53.265625 L 49.890625 53.5625 L 45.59375 52.25 L 45.28125 51.6875 C 45.519531 49.820312 45.6875 48.472656 45.78125 47.640625 C 45.875 46.804688 45.90625 46.226562 45.875 45.90625 C 45.851562 45.582031 45.78125 45.304688 45.65625 45.078125 C 45.320312 44.460938 44.328125 43.820312 42.671875 43.15625 C 41.023438 42.5 38.269531 41.582031 34.40625 40.40625 Z M 34.40625 40.40625 "/></g></g></g><g fill="#1c2c5b" fill-opacity="1"><g transform="translate(556.996836, 455.603051)"><g><path d="M 36.21875 62.453125 C 34.570312 64.878906 32.6875 67.191406 30.5625 69.390625 C 28.445312 71.585938 26.148438 73.582031 23.671875 75.375 L 22.546875 75.390625 C 20.785156 73.742188 18.992188 72.132812 17.171875 70.5625 C 15.347656 68.988281 13.484375 67.484375 11.578125 66.046875 L 11.5 65.328125 L 13.9375 61.75 L 14.609375 61.5625 C 15.953125 62.3125 17.160156 62.976562 18.234375 63.5625 C 19.316406 64.15625 20.097656 64.539062 20.578125 64.71875 C 20.785156 64.851562 21.457031 64.820312 22.59375 64.625 C 23.726562 64.4375 25.078125 63.835938 26.640625 62.828125 C 28.210938 61.828125 29.804688 60.140625 31.421875 57.765625 C 33.203125 55.128906 33.921875 52.507812 33.578125 49.90625 C 33.242188 47.300781 31.9375 45.226562 29.65625 43.6875 C 27.375 42.132812 25.144531 41.804688 22.96875 42.703125 C 20.800781 43.597656 18.21875 45.722656 15.21875 49.078125 C 10.101562 54.859375 5.425781 58.304688 1.1875 59.421875 C -3.050781 60.546875 -7.578125 59.472656 -12.390625 56.203125 C -18.222656 52.242188 -21.441406 47.003906 -22.046875 40.484375 C -22.660156 33.972656 -20.367188 26.890625 -15.171875 19.234375 C -10.429688 12.242188 -5.972656 7.753906 -1.796875 5.765625 L -0.796875 5.78125 C -0.171875 6.363281 0.597656 7.035156 1.515625 7.796875 C 2.441406 8.566406 3.523438 9.453125 4.765625 10.453125 C 6.078125 11.492188 7.269531 12.414062 8.34375 13.21875 C 9.425781 14.03125 10.320312 14.675781 11.03125 15.15625 L 11.09375 15.859375 L 8.625 19.5 L 7.984375 19.640625 C 4.765625 17.523438 1.660156 16.597656 -1.328125 16.859375 C -4.328125 17.117188 -6.960938 18.921875 -9.234375 22.265625 C -11.398438 25.460938 -12.359375 28.566406 -12.109375 31.578125 C -11.867188 34.597656 -10.453125 36.984375 -7.859375 38.734375 C -6.597656 39.597656 -5.46875 40.085938 -4.46875 40.203125 C -3.46875 40.328125 -2.4375 40.195312 -1.375 39.8125 C -0.3125 39.4375 0.914062 38.679688 2.3125 37.546875 C 3.71875 36.421875 5.421875 34.757812 7.421875 32.5625 C 11.429688 28.1875 15.585938 25.53125 19.890625 24.59375 C 24.191406 23.664062 28.851562 24.90625 33.875 28.3125 C 39.132812 31.882812 42.101562 36.601562 42.78125 42.46875 C 43.457031 48.34375 41.269531 55.003906 36.21875 62.453125 Z M 36.21875 62.453125 "/></g></g></g><g clip-path="url(#c196cbe697)"><g clip-path="url(#20f96825c6)"><g transform="matrix(1, 0, 0, 1, 365, 358)"><g clip-path="url(#e61a1c27ef)"><g clip-path="url(#a34483e698)"><g clip-path="url(#e3f01f3bcf)"><path fill="#ffcc53" d="M 0.457031 178.558594 L 102.9375 0.5625 L 131.363281 16.929688 L 28.882812 194.921875 Z M 0.457031 178.558594 " fill-opacity="1" fill-rule="nonzero"/></g></g></g></g></g></g><g clip-path="url(#a0f59a137c)"><g clip-path="url(#eaa092b522)"><g transform="matrix(1, 0, 0, 1, 300, 388)"><g clip-path="url(#dd8d758c6a)"><g clip-path="url(#20c5a37589)"><g clip-path="url(#621fa121c8)"><path fill="#ffcc53" d="M 0.496094 118.949219 L 68.753906 0.203125 L 97.191406 16.550781 L 28.933594 135.296875 Z M 0.496094 118.949219 " fill-opacity="1" fill-rule="nonzero"/></g></g></g></g></g></g><g clip-path="url(#e48fc287fb)"><g clip-path="url(#e5ef36895a)"><g transform="matrix(1, 0, 0, 1, 249, 338)"><g clip-path="url(#d3ddfc97bc)"><g clip-path="url(#4a4a375f42)"><g clip-path="url(#370988a319)"><path fill="#ffcc53" d="M 0.835938 119.089844 L 69.179688 0.390625 L 97.605469 16.757812 L 29.261719 135.457031 Z M 0.835938 119.089844 " fill-opacity="1" fill-rule="nonzero"/></g></g></g></g></g></g><g clip-path="url(#dab9539938)"><g transform="matrix(1, 0, 0, 1, 249, 262)"><g clip-path="url(#67ee348b9c)"><g clip-path="url(#67aee960fa)"><path fill="#ffffff" d="M 0.832031 0.5 L 249.121094 0.5 L 249.121094 113 L 0.832031 113 Z M 0.832031 0.5 " fill-opacity="1" fill-rule="nonzero"/></g></g></g></g><g clip-path="url(#945475aa0b)"><g transform="matrix(1, 0, 0, 1, 250, 355)"><g clip-path="url(#c78f015ae7)"><g clip-path="url(#bc06bdab4a)"><path fill="#ffcc53" d="M 0.722656 0.5625 L 248.09375 0.5625 L 248.09375 20 L 0.722656 20 Z M 0.722656 0.5625 " fill-opacity="1" fill-rule="nonzero"/></g></g></g></g><g transform="matrix(1, 0, 0, 1, 231, 237)"><g clip-path="url(#9b5adde45f)"><g clip-path="url(#2613a2f30d)"><path fill="#1c2c5b" d="M 277.960938 6.351562 L 9.308594 6.351562 C 7.125 6.351562 5.359375 8.121094 5.359375 10.304688 L 5.359375 167.253906 C 5.359375 216.148438 32.027344 261.265625 74.960938 285.003906 L 141.722656 321.917969 C 142.316406 322.246094 142.976562 322.414062 143.632812 322.414062 C 144.292969 322.414062 144.953125 322.246094 145.546875 321.917969 L 212.304688 285.003906 C 255.238281 261.265625 281.910156 216.148438 281.910156 167.253906 L 281.910156 10.304688 C 281.910156 8.121094 280.140625 6.351562 277.960938 6.351562 Z M 274.007812 167.253906 C 274.007812 213.273438 248.898438 255.742188 208.480469 278.089844 L 143.632812 313.949219 L 78.785156 278.089844 C 38.367188 255.742188 13.257812 213.273438 13.257812 167.253906 L 13.257812 14.253906 L 274.007812 14.253906 Z M 274.007812 167.253906 " fill-opacity="1" fill-rule="nonzero"/></g><g clip-path="url(#7e8bf7b0b6)"><path fill="#ffcc53" d="M 273.019531 12.164062 L 14.25 12.164062 C 12.148438 12.164062 10.441406 13.867188 10.441406 15.96875 L 10.441406 167.148438 C 10.441406 214.242188 36.132812 257.703125 77.488281 280.566406 L 141.792969 316.125 C 142.367188 316.441406 143 316.601562 143.632812 316.601562 C 144.269531 316.601562 144.902344 316.441406 145.476562 316.125 L 209.78125 280.566406 C 251.136719 257.703125 276.824219 214.242188 276.824219 167.148438 L 276.824219 15.96875 C 276.824219 13.867188 275.121094 12.164062 273.019531 12.164062 Z M 269.214844 167.148438 C 269.214844 211.476562 245.03125 252.382812 206.097656 273.910156 L 143.632812 308.449219 L 81.171875 273.910156 C 42.238281 252.382812 18.054688 211.476562 18.054688 167.148438 L 18.054688 19.773438 L 269.214844 19.773438 Z M 269.214844 167.148438 " fill-opacity="1" fill-rule="nonzero"/></g><g clip-path="url(#14f47e7511)"><path fill="#ffcc53" d="M 267.527344 18.625 L 19.738281 18.625 C 17.726562 18.625 16.09375 20.253906 16.09375 22.269531 L 16.09375 167.03125 C 16.09375 212.128906 40.695312 253.742188 80.292969 275.640625 L 141.871094 309.6875 C 142.417969 309.988281 143.027344 310.144531 143.632812 310.144531 C 144.238281 310.144531 144.847656 309.988281 145.394531 309.6875 L 206.972656 275.640625 C 246.570312 253.742188 271.171875 212.128906 271.171875 167.03125 L 271.171875 22.269531 C 271.171875 20.253906 269.539062 18.625 267.527344 18.625 Z M 263.882812 167.03125 C 263.882812 209.476562 240.726562 248.652344 203.445312 269.261719 L 143.632812 302.335938 L 83.820312 269.261719 C 46.539062 248.652344 23.382812 209.476562 23.382812 167.03125 L 23.382812 25.910156 L 263.882812 25.910156 Z M 263.882812 167.03125 " fill-opacity="1" fill-rule="nonzero"/></g><g clip-path="url(#609d013fd3)"><path fill="#1c2c5b" d="M 282.507812 1 L 4.761719 1 C 2.503906 1 0.675781 2.828125 0.675781 5.085938 L 0.675781 167.347656 C 0.675781 217.898438 28.25 264.542969 72.636719 289.085938 L 141.65625 327.25 C 142.273438 327.589844 142.953125 327.761719 143.632812 327.761719 C 144.3125 327.761719 144.996094 327.589844 145.609375 327.25 L 214.628906 289.085938 C 259.019531 264.542969 286.59375 217.898438 286.59375 167.347656 L 286.59375 5.085938 C 286.59375 2.828125 284.761719 1 282.507812 1 Z M 278.421875 167.347656 C 278.421875 214.925781 252.464844 258.835938 210.679688 281.9375 L 143.632812 319.011719 L 76.589844 281.9375 C 34.804688 258.835938 8.84375 214.925781 8.84375 167.347656 L 8.84375 9.167969 L 278.421875 9.167969 Z M 278.421875 167.347656 " fill-opacity="1" fill-rule="nonzero"/></g></g></g><g clip-path="url(#bc1f6e1530)"><g clip-path="url(#83219281fa)"><g transform="matrix(1, 0, 0, 1, 283, 282)"><g clip-path="url(#cbfa4e7f09)"><g clip-path="url(#29b9164da2)"><g clip-path="url(#c8f09572c7)"><path fill="#1b0760" d="M 0.207031 0.3125 L 185.585938 0.3125 L 185.585938 185.6875 L 0.207031 185.6875 Z M 0.207031 0.3125 " fill-opacity="1" fill-rule="nonzero"/></g></g></g></g></g></g><g transform="matrix(1, 0, 0, 1, 293, 333)"><g clip-path="url(#c88c2c3d7f)"><g fill="#ffffff" fill-opacity="1"><g transform="translate(0.930087, 73.674295)"><g><path d="M 14.875 -68.875 C 16 -68.882812 17.359375 -68.941406 18.953125 -69.046875 C 20.546875 -69.160156 22.125 -69.253906 23.6875 -69.328125 C 25.257812 -69.410156 26.476562 -69.453125 27.34375 -69.453125 C 34.800781 -59.953125 41.671875 -51.535156 47.953125 -44.203125 C 54.234375 -36.878906 60.0625 -30.3125 65.4375 -24.5 L 65.234375 -47.25 C 65.222656 -48.90625 65.1875 -50.726562 65.125 -52.71875 C 65.070312 -54.71875 64.976562 -56.316406 64.84375 -57.515625 C 64.488281 -60.441406 64.046875 -62.101562 63.515625 -62.5 C 63.171875 -62.820312 62.53125 -63.082031 61.59375 -63.28125 C 60.664062 -63.476562 59.238281 -63.664062 57.3125 -63.84375 L 56.8125 -64.34375 L 56.765625 -69.234375 L 57.265625 -69.71875 C 57.523438 -69.71875 58.171875 -69.691406 59.203125 -69.640625 C 60.234375 -69.585938 61.429688 -69.546875 62.796875 -69.515625 C 64.160156 -69.492188 65.421875 -69.457031 66.578125 -69.40625 C 67.742188 -69.351562 68.628906 -69.332031 69.234375 -69.34375 C 70.429688 -69.351562 71.8125 -69.410156 73.375 -69.515625 C 74.9375 -69.628906 76.445312 -69.722656 77.90625 -69.796875 C 79.375 -69.878906 80.472656 -69.921875 81.203125 -69.921875 L 81.703125 -69.453125 L 81.75 -64.5625 L 81.25 -64.046875 C 78.59375 -63.628906 76.832031 -63.164062 75.96875 -62.65625 C 75.113281 -62.15625 74.554688 -61.398438 74.296875 -60.390625 C 74.160156 -59.992188 74.050781 -58.960938 73.96875 -57.296875 C 73.882812 -55.640625 73.816406 -53.5625 73.765625 -51.0625 C 73.722656 -48.570312 73.695312 -45.863281 73.6875 -42.9375 C 73.6875 -40.007812 73.695312 -37.113281 73.71875 -34.25 C 73.769531 -29.195312 73.828125 -24.554688 73.890625 -20.328125 C 73.960938 -16.109375 74.078125 -12.601562 74.234375 -9.8125 C 74.390625 -6.882812 74.488281 -4.609375 74.53125 -2.984375 C 74.582031 -1.359375 74.648438 -0.242188 74.734375 0.359375 L 73.734375 1.25 C 71.140625 0.875 68.804688 0.5625 66.734375 0.3125 C 64.671875 0.0703125 62.609375 -0.0390625 60.546875 -0.03125 C 59.816406 -0.414062 58.054688 -2.175781 55.265625 -5.3125 C 52.484375 -8.445312 48.570312 -12.921875 43.53125 -18.734375 C 38.488281 -24.535156 33.96875 -29.765625 29.96875 -34.421875 C 25.976562 -39.085938 22.4375 -43.195312 19.34375 -46.75 C 19.351562 -45.6875 19.347656 -44.304688 19.328125 -42.609375 C 19.316406 -40.921875 19.285156 -39.191406 19.234375 -37.421875 C 19.179688 -35.660156 19.160156 -34.082031 19.171875 -32.6875 C 19.222656 -26.300781 19.363281 -20.960938 19.59375 -16.671875 C 19.832031 -12.390625 20.125 -9.679688 20.46875 -8.546875 C 20.675781 -7.960938 20.929688 -7.488281 21.234375 -7.125 C 21.535156 -6.757812 22.148438 -6.460938 23.078125 -6.234375 C 24.015625 -6.015625 25.515625 -5.8125 27.578125 -5.625 L 28.078125 -5.140625 L 28.125 -0.25 L 27.625 0.265625 C 27.09375 0.265625 25.992188 0.222656 24.328125 0.140625 C 22.671875 0.0546875 20.992188 -0.0078125 19.296875 -0.0625 C 17.609375 -0.113281 16.363281 -0.140625 15.5625 -0.140625 C 14.957031 -0.128906 13.875 -0.101562 12.3125 -0.0625 C 10.75 -0.0195312 9.101562 0.0390625 7.375 0.125 C 5.644531 0.207031 4.25 0.320312 3.1875 0.46875 L 2.6875 -0.015625 L 2.640625 -4.90625 L 3.140625 -5.421875 C 5.929688 -5.972656 7.691406 -6.347656 8.421875 -6.546875 C 9.148438 -6.753906 9.644531 -7.0625 9.90625 -7.46875 C 10.113281 -7.738281 10.296875 -8.207031 10.453125 -8.875 C 10.609375 -9.539062 10.726562 -10.703125 10.8125 -12.359375 C 10.90625 -14.023438 10.9375 -16.453125 10.90625 -19.640625 L 10.671875 -47.78125 C 10.640625 -51.03125 10.582031 -53.566406 10.5 -55.390625 C 10.414062 -57.222656 10.269531 -58.675781 10.0625 -59.75 C 9.914062 -60.675781 9.640625 -61.316406 9.234375 -61.671875 C 8.835938 -62.035156 8.140625 -62.3125 7.140625 -62.5 C 6.140625 -62.695312 4.640625 -62.988281 2.640625 -63.375 L 2.140625 -63.859375 L 2.09375 -68.75 L 2.59375 -69.25 C 3.257812 -69.25 4.375 -69.222656 5.9375 -69.171875 C 7.5 -69.128906 9.144531 -69.066406 10.875 -68.984375 C 12.601562 -68.898438 13.9375 -68.863281 14.875 -68.875 Z M 14.875 -68.875 "/></g></g></g><g fill="#ffffff" fill-opacity="1"><g transform="translate(95.894454, 72.850914)"><g><path d="M 6.6875 -68.796875 L 7.1875 -69.28125 C 10.3125 -69.25 13.648438 -69.195312 17.203125 -69.125 C 20.765625 -69.0625 24.257812 -69.03125 27.6875 -69.03125 C 31.113281 -69.03125 34.125 -69.039062 36.71875 -69.0625 C 42.363281 -69.101562 47.515625 -69.191406 52.171875 -69.328125 C 56.828125 -69.472656 61.347656 -69.628906 65.734375 -69.796875 L 66.234375 -69.40625 L 66.28125 -63.8125 C 65.226562 -62.613281 63.832031 -60.859375 62.09375 -58.546875 C 60.351562 -56.234375 58.425781 -53.570312 56.3125 -50.5625 C 54.9375 -48.550781 53.507812 -46.476562 52.03125 -44.34375 C 50.550781 -42.207031 48.910156 -39.800781 47.109375 -37.125 C 45.304688 -34.445312 43.15625 -31.269531 40.65625 -27.59375 L 27.859375 -8.609375 L 45.3125 -8.765625 C 49.03125 -8.796875 51.785156 -8.898438 53.578125 -9.078125 C 55.378906 -9.265625 56.546875 -9.460938 57.078125 -9.671875 C 57.546875 -9.804688 57.910156 -10.09375 58.171875 -10.53125 C 58.429688 -10.96875 58.6875 -11.71875 58.9375 -12.78125 L 60.296875 -19.1875 L 60.96875 -19.6875 L 65.96875 -19.734375 L 66.484375 -19.234375 C 66.222656 -17.566406 66.003906 -15.597656 65.828125 -13.328125 C 65.648438 -11.066406 65.503906 -8.804688 65.390625 -6.546875 C 65.273438 -4.285156 65.15625 -2.289062 65.03125 -0.5625 L 64.4375 -0.0625 C 59.445312 -0.15625 54.441406 -0.226562 49.421875 -0.28125 C 44.398438 -0.332031 38.960938 -0.332031 33.109375 -0.28125 C 30.316406 -0.257812 27.078125 -0.21875 23.390625 -0.15625 C 19.703125 -0.09375 15.992188 -0.015625 12.265625 0.078125 C 8.546875 0.179688 5.222656 0.316406 2.296875 0.484375 L 1.796875 -0.015625 L 1.75 -5.40625 C 3.851562 -8.28125 6.332031 -11.757812 9.1875 -15.84375 C 12.050781 -19.925781 15.347656 -24.675781 19.078125 -30.09375 C 22.828125 -35.507812 26.410156 -40.757812 29.828125 -45.84375 C 33.242188 -50.9375 36.5625 -55.882812 39.78125 -60.6875 L 28.515625 -60.59375 C 20.128906 -60.519531 15.40625 -60.210938 14.34375 -59.671875 C 13.882812 -59.410156 13.492188 -58.546875 13.171875 -57.078125 C 12.859375 -55.609375 12.539062 -53.8125 12.21875 -51.6875 L 11.53125 -51.1875 L 6.84375 -51.140625 L 6.328125 -51.640625 C 6.453125 -53.367188 6.550781 -55.742188 6.625 -58.765625 C 6.695312 -61.785156 6.71875 -65.128906 6.6875 -68.796875 Z M 6.6875 -68.796875 "/></g></g></g></g></g></svg>